<?xml version="1.0" encoding="utf-8"?>
<!-- Generator: Adobe Illustrator 16.0.3, SVG Export Plug-In . SVG Version: 6.00 Build 0)  -->
<!DOCTYPE svg PUBLIC "-//W3C//DTD SVG 1.1//EN" "http://www.w3.org/Graphics/SVG/1.1/DTD/svg11.dtd">
<svg version="1.1" id="Layer_1" xmlns="http://www.w3.org/2000/svg" xmlns:xlink="http://www.w3.org/1999/xlink" x="0px" y="0px"
	 width="252px" height="90px" viewBox="0 0 252 90" enable-background="new 0 0 252 90" xml:space="preserve">
<path fill="#FFFFFF" d="M236.828,42.171l-27-27c-1.563-1.562-4.095-1.562-5.657,0c-1.562,1.563-1.562,4.095,0,5.657L228.342,45
	L204.17,69.172c-1.562,1.562-1.562,4.095,0,5.656c0.781,0.781,1.805,1.172,2.829,1.172s2.047-0.391,2.829-1.172l27-27
	C238.39,46.266,238.39,43.734,236.828,42.171z"/>
<path fill="#FFFFFF" d="M47.828,15.171c-1.563-1.562-4.095-1.562-5.657,0l-27,27c-1.562,1.563-1.562,4.095,0,5.657l27,27
	C42.952,75.609,43.975,76,44.999,76s2.047-0.391,2.829-1.172c1.562-1.562,1.562-4.095,0-5.656L23.656,45l24.172-24.171
	C49.39,19.266,49.39,16.734,47.828,15.171z"/>
<g>
	<path fill="#FFFFFF" d="M81,14c-2.209,0-4,1.791-4,4v54c0,2.209,1.791,4,4,4s4-1.791,4-4V18C85,15.791,83.208,14,81,14z"/>
	<path fill="#FFFFFF" d="M108,14c-2.209,0-4,1.791-4,4v54c0,2.209,1.791,4,4,4s4-1.791,4-4V18C112,15.791,110.208,14,108,14z"/>
</g>
<path fill="#FFFFFF" d="M146.828,15.171c-1.144-1.144-2.864-1.485-4.359-0.867C140.974,14.924,140,16.382,140,18v54
	c0,1.618,0.975,3.076,2.469,3.695c0.495,0.205,1.015,0.305,1.53,0.305c1.041,0,2.064-0.406,2.83-1.172l27-27
	c1.562-1.563,1.562-4.095,0-5.657L146.828,15.171z"/>
</svg>
